<svg xmlns="http://www.w3.org/2000/svg" width="16" height="16" fill="none" style=""><rect id="backgroundrect" width="100%" height="100%" x="0" y="0" fill="none" stroke="none" style="" class=""/>


<defs>
<filter id="filter0_d_32356_6568" x="0" y="0" width="28" height="28" filterUnits="userSpaceOnUse" color-interpolation-filters="sRGB">
<feFlood flood-opacity="0" result="BackgroundImageFix"/>
<feColorMatrix in="SourceAlpha" type="matrix" values="0 0 0 0 0 0 0 0 0 0 0 0 0 0 0 0 0 0 127 0" result="hardAlpha"/>
<feOffset dy="3"/>
<feGaussianBlur stdDeviation="3"/>
<feColorMatrix type="matrix" values="0 0 0 0 0 0 0 0 0 0 0 0 0 0 0 0 0 0 0.09 0"/>
<feBlend mode="normal" in2="BackgroundImageFix" result="effect1_dropShadow_32356_6568"/>
<feBlend mode="normal" in="SourceGraphic" in2="effect1_dropShadow_32356_6568" result="shape"/>
</filter>
</defs>
<g class="currentLayer" style=""><title>Layer 1</title><g filter="url(#filter0_d_32356_6568)" id="svg_1" class="">
<circle cx="7.922651767730713" cy="8.237569093704224" r="8" fill="#2BE080" id="svg_2"/>
</g><path fill-rule="evenodd" clip-rule="evenodd" d="M7.922651767730713,14.237569093704224 C11.236351767730714,14.237569093704224 13.922651767730713,11.551269093704224 13.922651767730713,8.237569093704224 C13.922651767730713,4.923859093704224 11.236351767730714,2.2375690937042236 7.922651767730713,2.2375690937042236 C4.608951767730712,2.2375690937042236 1.922651767730713,4.923859093704224 1.922651767730713,8.237569093704224 C1.922651767730713,11.551269093704224 4.608951767730712,14.237569093704224 7.922651767730713,14.237569093704224 zM7.922651767730713,16.237569093704224 C12.340951767730711,16.237569093704224 15.922651767730713,12.655869093704224 15.922651767730713,8.237569093704224 C15.922651767730713,3.8192890937042234 12.340951767730711,0.23756909370422363 7.922651767730713,0.23756909370422363 C3.5043717677307136,0.23756909370422363 -0.07734823226928711,3.8192890937042234 -0.07734823226928711,8.237569093704224 C-0.07734823226928711,12.655869093704224 3.5043717677307136,16.237569093704224 7.922651767730713,16.237569093704224 z" fill="white" id="svg_3" class=""/></g></svg>